<svg class="ps-child-icon" xmlns="http://www.w3.org/2000/svg" viewBox="0 0 413.12 413.12"><path d="M289.54,49.62c-66.15-66.16-173.78-66.16-239.93,0s-66.15,173.77,0,239.91c63.88,63.89,166.44,66.06,233,6.57L296,309.55a23.88,23.88,0,0,0,5.33,25.6l71,71a23.89,23.89,0,1,0,33.79-33.79l-71-71a23.86,23.86,0,0,0-25.6-5.33L296.1,282.58C355.6,216,353.42,113.49,289.54,49.62ZM69.89,269.27c-55-55-55-144.41,0-199.38s144.41-55,199.38,0,55,144.41,0,199.38S124.86,324.24,69.89,269.27Zm33.49-167.12a225.7,225.7,0,0,1,81.26-52.3c-33.24-1.9-68.85,11-96.17,38.35-27.7,27.7-40.6,63.92-38.25,97.57A225.56,225.56,0,0,1,103.38,102.15Z" transform="translate(0 0)"/></svg>
